<?xml version="1.0" standalone="no"?>
<!DOCTYPE svg PUBLIC "-//W3C//DTD SVG 20010904//EN"
 "http://www.w3.org/TR/2001/REC-SVG-20010904/DTD/svg10.dtd">
<svg version="1.0" xmlns="http://www.w3.org/2000/svg"
 width="1104.000000pt" height="1104.000000pt" viewBox="0 0 1104.000000 1104.000000"
 preserveAspectRatio="xMidYMid meet">
<metadata>
Created by potrace 1.11, written by Peter Selinger 2001-2013
</metadata>
<g transform="translate(0.000000,1104.000000) scale(0.100000,-0.100000)"
fill="#000000" stroke="none">
<path d="M2881 7733 l0 -588 1308 -1589 c719 -875 1312 -1591 1317 -1592 5 -2
604 706 1332 1572 l1322 1575 0 604 0 605 -2640 0 -2640 0 1 -587z m309 425
c0 -61 -1 -62 -18 -42 -9 12 -32 40 -50 63 l-34 41 51 0 51 0 0 -62z m300
-175 c-1 -226 -2 -237 -18 -218 -9 12 -63 75 -119 142 l-103 122 0 95 0 96
120 0 120 0 0 -237z m330 -193 c0 -236 -2 -430 -4 -430 -2 0 -62 70 -135 155
l-131 155 0 275 0 275 135 0 135 0 0 -430z m330 168 c0 -144 -2 -259 -4 -257
-2 2 -63 120 -136 262 l-132 257 136 0 136 0 0 -262z m340 95 c0 -92 -4 -163
-8 -157 -5 5 -60 72 -122 149 -62 77 -120 148 -128 158 -14 16 -8 17 121 17
l137 0 0 -167z m360 52 c0 -74 -4 -115 -11 -115 -10 0 -259 217 -259 226 0 2
61 4 135 4 l135 0 0 -115z m330 60 l0 -55 -102 51 c-57 28 -105 53 -107 55 -2
2 44 4 102 4 l107 0 0 -55z m290 15 c0 -22 -2 -40 -4 -40 -2 0 -41 18 -87 39
l-84 39 88 1 87 1 0 -40z m239 36 c-3 -3 -44 -23 -92 -45 l-87 -40 0 44 0 45
92 0 c50 0 89 -2 87 -4z m330 0 c-2 -2 -50 -27 -106 -55 l-103 -51 0 55 0 55
107 0 c58 0 104 -2 102 -4z m391 1 c0 -8 -250 -227 -259 -227 -7 0 -11 40 -11
115 l0 115 135 0 c74 0 135 -1 135 -3z m294 -79 c-180 -218 -205 -248 -208
-248 -2 0 -4 74 -5 165 l-2 165 141 0 142 0 -68 -82z m275 -175 c-73 -142
-134 -260 -136 -262 -1 -2 -3 113 -3 257 l0 262 136 0 135 0 -132 -257z m461
-35 l0 -293 -135 -158 -135 -158 0 451 0 450 135 0 135 0 0 -292z m300 175 l0
-118 -111 -130 c-61 -71 -114 -134 -120 -139 -5 -6 -9 87 -9 247 l0 257 120 0
120 0 0 -117z m139 45 c-35 -40 -67 -77 -71 -82 -4 -6 -8 27 -8 72 l0 82 71 0
71 0 -63 -72z m-2858 -29 l84 -42 -85 -23 c-47 -13 -95 -26 -107 -30 -23 -6
-23 -4 -23 75 l0 81 24 -10 c13 -5 61 -28 107 -51z m279 26 l65 -34 -41 -1
c-23 0 -56 -3 -73 -6 -31 -6 -31 -6 -31 35 0 22 3 41 8 41 4 -1 36 -16 72 -35z
m438 -40 c-2 -1 -32 0 -67 3 l-65 5 65 32 64 33 3 -35 c2 -19 2 -36 0 -38z
m342 -9 l0 -85 -54 18 c-29 11 -79 25 -111 32 l-58 13 108 53 c59 29 110 53
112 53 1 0 3 -38 3 -84z m-1401 -63 l74 -69 -107 -52 c-59 -29 -110 -52 -112
-52 -2 0 -4 68 -4 151 l0 151 38 -31 c20 -16 70 -61 111 -98z m1758 -169 c-2
-2 -54 20 -115 48 l-110 53 111 98 112 98 3 -147 c1 -81 1 -148 -1 -150z
m-2112 114 l133 -163 -31 -19 c-18 -11 -78 -50 -134 -88 -57 -37 -104 -68
-107 -68 -2 0 -4 116 -5 257 -1 142 1 254 5 251 3 -4 66 -80 139 -170z m2460
-82 c0 -167 -3 -252 -10 -248 -5 3 -43 27 -82 54 -40 27 -98 63 -128 81 l-54
33 136 167 c74 92 136 167 137 167 0 0 1 -114 1 -254z m-2665 -307 c0 -3 -32
-32 -72 -64 -40 -33 -101 -86 -135 -119 l-63 -58 0 383 0 384 135 -260 c74
-143 134 -262 135 -266z m3000 151 l0 -370 -134 112 -135 113 132 257 c73 142
133 258 135 258 1 0 2 -166 2 -370z m-1510 310 c277 -25 582 -126 860 -286 63
-37 129 -73 145 -82 47 -24 205 -135 276 -194 90 -75 229 -209 229 -220 0 -6
-41 -58 -92 -116 l-91 -107 -86 -22 c-108 -27 -131 -35 -349 -127 -223 -94
-305 -116 -434 -116 -174 0 -229 30 -292 163 -24 51 -52 99 -62 109 -34 30
-294 118 -349 118 -88 0 -141 -26 -201 -101 -78 -99 -106 -119 -163 -119 -57
0 -79 20 -136 125 -92 167 -297 363 -431 411 -28 9 -80 17 -119 18 -59 0 -81
-5 -138 -31 -76 -36 -166 -116 -223 -199 l-38 -55 -25 26 -26 26 86 83 c401
385 940 656 1382 695 133 12 150 12 277 1z m-2250 -480 c33 -17 83 -66 178
-178 23 -28 42 -53 42 -56 0 -17 -126 -164 -133 -157 -5 5 -2 36 7 73 20 78 9
125 -36 163 -29 24 -38 27 -95 23 -71 -4 -115 -33 -168 -107 -24 -34 -30 -54
-33 -109 -3 -57 0 -72 20 -102 32 -48 80 -70 151 -70 32 0 56 -4 53 -9 -4 -5
-40 -23 -82 -41 l-75 -31 -72 76 c-40 42 -84 102 -99 133 -65 133 -12 302 119
379 79 46 149 50 223 13z m4210 -121 c0 -9 227 -99 324 -128 37 -12 88 -21
112 -21 25 0 44 -5 44 -11 0 -6 -37 -55 -82 -109 -75 -92 -107 -114 -95 -70
16 61 -78 80 -170 35 -28 -14 -54 -32 -57 -40 -2 -7 13 -41 35 -75 36 -56 42
-61 72 -59 22 2 31 -1 29 -9 -4 -21 -184 -232 -192 -227 -5 3 -6 14 -3 25 3
11 -2 31 -11 45 -16 25 -19 25 -139 24 -67 -1 -167 -4 -222 -8 l-100 -6 105
-86 c192 -157 185 -152 219 -144 17 4 31 3 31 -1 0 -14 -85 -113 -97 -114 -7
0 -13 11 -13 24 0 25 -33 59 -160 162 -126 102 -188 143 -212 136 -30 -7 -24
2 79 127 l92 112 17 -25 c15 -23 23 -26 78 -25 33 0 70 4 80 8 17 7 13 12 -30
45 -33 25 -56 36 -72 33 -35 -7 -37 10 -5 47 15 18 37 44 48 57 l20 24 3 -33
c3 -28 20 -47 114 -128 120 -102 221 -174 245 -174 21 0 11 36 -37 135 -53
111 -151 257 -194 290 l-36 27 77 90 c70 83 78 89 90 72 7 -10 13 -21 13 -25z
m-3801 -348 c39 -46 71 -88 71 -93 0 -6 -10 -8 -22 -5 -27 7 -46 -6 -221 -151
-94 -79 -139 -123 -143 -141 -3 -14 -7 -30 -8 -35 -2 -8 -156 167 -156 178 0
3 13 6 29 6 32 0 82 36 254 187 70 61 100 93 104 114 3 17 9 28 14 27 4 -2 40
-41 78 -87z m2974 -272 c-106 -146 -200 -251 -247 -273 -23 -11 -62 -16 -118
-16 -121 -1 -160 -13 -252 -79 -94 -68 -104 -73 -273 -147 l-128 -55 -22 26
c-51 58 -35 112 43 147 25 10 95 30 157 44 262 57 298 72 507 224 196 143 260
186 327 221 101 53 102 41 6 -92z m-2715 -41 c35 -43 90 -107 123 -142 l59
-64 -56 -72 c-59 -75 -87 -83 -59 -17 8 20 15 46 15 58 0 25 -29 89 -40 89 -9
0 -288 -238 -308 -263 -8 -9 -11 -25 -7 -36 14 -45 -16 -24 -93 64 -45 52 -82
100 -82 106 0 7 11 8 30 4 36 -8 45 -2 220 144 69 57 125 108 125 114 0 6 -16
22 -35 35 -31 20 -42 23 -92 17 -32 -4 -58 -3 -58 2 0 4 35 27 78 50 l77 43
20 -26 c11 -15 48 -62 83 -106z m2125 -74 l49 -6 -24 -25 c-37 -41 -137 -102
-193 -118 -64 -19 -250 -28 -277 -14 -27 14 -58 69 -58 101 0 16 9 34 25 46
22 17 43 19 227 20 112 1 225 -1 251 -4z m943 -72 c22 -11 58 -40 81 -64 125
-137 82 -352 -89 -437 -175 -88 -375 20 -395 212 -14 138 82 271 222 308 47
13 138 3 181 -19z m-2768 -205 c45 -53 82 -102 82 -107 0 -5 -13 -7 -28 -4
-30 6 -32 3 -73 -100 l-20 -48 46 6 c79 12 120 31 120 54 1 38 12 33 69 -34
36 -42 54 -70 48 -76 -6 -6 -17 -6 -30 1 -28 15 -81 14 -186 -5 -109 -19 -134
-31 -209 -102 -51 -49 -57 -59 -52 -84 11 -50 -17 -30 -98 68 -74 91 -90 127
-46 103 26 -13 79 20 154 95 58 58 103 162 112 256 6 66 10 83 21 78 5 -2 45
-47 90 -101z m2392 -256 c73 -28 114 -63 144 -123 29 -58 34 -120 12 -171 -23
-56 -237 -327 -257 -327 -5 0 -9 11 -9 24 0 17 -24 44 -90 101 -201 171 -233
195 -267 195 -18 0 -33 4 -33 8 0 9 116 151 173 211 89 92 216 124 327 82z
m-1935 -336 c123 -60 188 -200 151 -327 -22 -76 -66 -132 -128 -165 -46 -24
-65 -28 -138 -28 -75 0 -91 3 -132 28 -91 53 -148 150 -148 252 0 206 207 332
395 240z m1440 -72 c41 -21 75 -41 75 -45 0 -4 -27 -8 -61 -8 -65 0 -89 -9
-131 -48 -38 -35 -37 -73 3 -106 35 -30 49 -25 75 26 11 21 12 33 4 47 -5 11
-10 25 -10 31 0 12 121 -49 161 -82 l24 -20 -39 6 c-43 6 -78 -9 -114 -47
l-23 -24 58 -53 c104 -93 152 -101 190 -33 29 52 36 100 23 153 -6 25 -14 55
-17 68 -10 43 12 21 69 -66 l58 -88 -56 -59 c-31 -33 -92 -106 -137 -162 -44
-57 -84 -103 -88 -103 -5 0 -9 11 -9 25 0 28 -85 105 -254 232 -70 52 -104 72
-117 68 -34 -11 -20 15 54 98 96 108 154 183 162 207 8 27 13 26 100 -17z
m-1006 -426 c49 -63 110 -132 134 -154 l44 -41 -50 -68 c-60 -84 -56 -78 -62
-72 -3 3 0 27 6 54 8 36 8 60 0 91 -12 44 -55 103 -75 103 -15 0 -86 -48 -86
-59 0 -5 14 -23 30 -41 27 -29 34 -31 66 -25 l37 6 -31 -38 c-105 -128 -142
-156 -106 -80 20 41 14 74 -20 114 l-23 27 -97 -83 c-82 -70 -96 -87 -96 -113
0 -19 -4 -28 -12 -26 -7 3 -46 45 -86 94 l-73 89 39 5 c29 5 64 25 133 80 136
108 219 189 219 215 0 19 7 35 16 35 1 0 43 -51 93 -113z m672 23 c32 -23 59
-45 59 -50 0 -6 -25 -10 -56 -10 -70 0 -116 -21 -139 -65 -18 -31 -18 -35 -2
-59 23 -34 37 -33 109 10 85 49 177 78 224 69 47 -8 89 -50 104 -104 23 -88
-15 -177 -122 -283 -43 -43 -78 -82 -78 -88 0 -5 -5 -10 -10 -10 -8 0 -107 68
-169 116 -1 1 0 7 4 13 4 8 15 6 35 -4 44 -23 121 -19 161 8 74 50 102 132 54
163 -32 21 -64 13 -140 -36 -104 -67 -166 -78 -225 -37 -104 71 -87 207 41
318 32 29 61 60 64 70 9 27 18 24 86 -21z m-302 -574 c50 -81 91 -153 91 -158
0 -6 -44 -82 -97 -168 l-97 -158 -98 160 c-54 88 -98 163 -98 165 0 15 195
321 201 315 4 -4 48 -74 98 -156z"/>
<path d="M7587 7220 c19 -33 39 -60 43 -60 9 0 91 52 87 56 -6 5 -150 64 -158
64 -4 0 8 -27 28 -60z"/>
<path d="M6833 6518 c-42 -45 -34 -95 26 -161 53 -57 142 -111 202 -122 47 -9
92 14 108 54 26 62 -48 159 -172 223 -68 36 -134 38 -164 6z"/>
<path d="M6475 6052 c-22 -10 -46 -26 -54 -36 -12 -14 -11 -20 10 -42 34 -38
229 -193 263 -211 29 -15 30 -15 63 21 27 29 33 44 33 79 0 57 -42 120 -110
166 -64 44 -142 52 -205 23z"/>
<path d="M4705 5746 c-94 -44 -185 -160 -185 -235 0 -69 79 -103 153 -65 83
43 167 139 182 211 11 55 -34 113 -88 113 -7 0 -34 -11 -62 -24z"/>
</g>
</svg>
