<svg version="1.1" id="prefix__Layer_1" x="0" y="0" viewBox="0 0 74.7 72.35" xml:space="preserve"><style>.prefix__st0{fill:#81b3d2}</style><path class="prefix__st0" d="M29.5 65.34h16V41.41h-16v23.93zm13.07-2.93H32.44V44.34h10.13v18.07z"/><path class="prefix__st0" d="M72.62 39.44l2.08-2.08-9.91-9.91V.47H50.97v13.16L37.35 0 0 37.36l2.08 2.08 7.83-7.83v37.8H5.97v2.94h63.88v-2.94h-5.06v-37.8l7.83 7.83zM53.91 3.41h7.94v21.1l-7.94-7.94V3.41zm7.94 66h-49V28.67l24.5-24.5 24.5 24.5v40.74z"/><path class="prefix__st0" d="M29.75 27.21a7.75 7.75 0 1015.5 0 7.75 7.75 0 00-15.5 0zm7.75-4.97c2.75 0 4.97 2.22 4.97 4.97a4.97 4.97 0 11-4.97-4.97zM16.91 41.41h3v3.94h-3zM22.85 41.41h3v3.94h-3zM16.91 47.41h3v3.94h-3zM22.85 47.41h3v3.94h-3zM48.85 41.41h3v3.94h-3zM54.78 41.41h3v3.94h-3zM48.85 47.41h3v3.94h-3zM54.78 47.41h3v3.94h-3z"/></svg>